<?xml version="1.0" encoding="iso-8859-1"?>
<!-- Generator: Adobe Illustrator 19.0.0, SVG Export Plug-In . SVG Version: 6.00 Build 0)  -->
<svg version="1.1" id="Capa_1" xmlns="http://www.w3.org/2000/svg" xmlns:xlink="http://www.w3.org/1999/xlink" x="0px" y="0px"
	 viewBox="0 0 490.4 490.4" style="enable-background:new 0 0 490.4 490.4;" xml:space="preserve">
<g>
	<path d="M451.25,61.4h-45.8v-5.2c0-31.2-25-56.2-56.2-56.2H74.45c-31.2,0-56.2,25-56.2,56.2v55.2c0,31.2,25,56.2,56.2,56.2h274.8
		c31.2,0,56.2-25,56.2-56.2v-8.3h25v96.8h-218.6c-11.4,0-20.8,9.4-20.8,20.8v40.7h-12.4c-10.2,0-18.9,7.5-20.3,17.7l-17.9,129.2
		c-6,57.1,26.9,82.1,71.5,82.1c29.7,0,79.8-11.5,71.5-82.1l-17.9-129.2c-1.4-10.1-10.1-17.7-20.3-17.7h-12.5v-19.9h218.6
		c11.4,0,20.8-9.4,20.8-20.8V82.2C472.05,70.8,462.65,61.4,451.25,61.4z M364.85,111.4c0,8.3-7.3,15.6-15.6,15.6H74.45
		c-8.3,0-15.6-7.3-15.6-15.6V56.2c0-8.3,7.3-15.6,15.6-15.6h274.8c8.3,0,15.6,7.3,15.6,15.6L364.85,111.4L364.85,111.4z
		 M211.85,449.3c-16.5,0-30.9-13.1-30.9-35.4l15.5-111.6h30.8l15.5,111.6C242.75,441,231.85,449.3,211.85,449.3z"/>
</g>
</svg>
